<svg xmlns="http://www.w3.org/2000/svg" width="401.99899" height="607.31958" viewBox="0 0 401.99899 607.31958" xmlns:xlink="http://www.w3.org/1999/xlink" role="img" artist="Katerina Limpitsouni" source="https://undraw.co/">
    <polygon points="263.59649 237.85226 256.28537 161.08552 167.33345 170.83368 167.33345 236.63374 263.59649 237.85226" fill="#ffb6b6"/>
    <polygon points="297.10141 550.3996 297.10141 607.31958 295.18142 606.44958 63.15146 606.44958 69.85141 565.05963 70.98142 558.07959 71.87143 552.60962 114.13144 552.19958 114.17141 552.18957 131.04142 552.0296 135.33146 551.98962 138.68142 551.94958 189.3414 551.45959 258.40146 550.7796 297.10141 550.3996" fill="#2f2e41"/>
    <polygon points="166.11493 218.35596 262.37799 226.88557 328.02783 293.20639 303.19839 452.92096 297.1058 568.68036 68.02409 565.02478 94.83152 429.7691 82.64633 245.77264 166.11493 218.35596" fill="#e6e6e6"/>
    <path d="M283.63144,601.29962l-3.85004,5.14996h-99.06c-9.03998-8.96997-23.77997-21.19-39.71997-33.67999-2.16003-1.70996-4.34998-3.40997-6.54999-5.10999-.69-.53998-1.38-1.07001-2.07001-1.59998l-.01001-.01001c-3.60999-2.79004-7.23999-5.57001-10.84003-8.29999-2.46997-1.88-4.92999-3.74005-7.35999-5.56006-.01001-.00995-.01996-.01996-.03998-.02997-.78003-.59003-1.57001-1.17999-2.35004-1.76001-14.31995-10.73999-27.35999-20.21002-35.65997-26.21997h-.01001c-2.42999-1.75-4.45996-3.20001-5.97998-4.30005-2.14001-1.53998-3.33002-2.37994-3.33002-2.37994l2.45001-1.91003c.02002,.01001,.02002,0,.02002,0l10-7.72998,.09998-.08002,6.47998-5.01001,39.67004-30.69-1.65002-1.46997,32.89001,11.57996,36.25,20.93005,31.88,18.39996,10,5.78003c4.82001,2.77997,9.22998,6.15997,13.13995,10.03998,2.82001,2.79999,5.39001,5.85999,7.64001,9.14001,.89001,1.27002,1.72003,2.58002,2.51001,3.91998l.22003,.38,10.25995,17.45001,14.21002,32.38,.76001,.69Z" fill="#6c63ff"/>
    <path d="M232.31712,606.45447h62.86339l-11.55154-5.15442-7.31113-3.26562c-15.45081-6.89679-32.91223-2.961-44.00073,8.41998l.00002,.00006Z" fill="#ffb6b6"/>
    <circle cx="185.00198" cy="128.79475" r="81.64083" fill="#ffb6b6"/>
    <path d="M100.31487,246.3819s-37.77411-7.31113-53.61486,28.02594c-15.84076,35.33707-25.58891,86.51489-25.58891,86.51489l85.29637,3.65555-6.0926-118.19641v.00003Z" fill="#e6e6e6"/>
    <path d="M200.29142,606.44958H125.21145l-15.05005-14.26996-.03998,.02997,.25-.25,24.08002-24.29999,1.52997-1.54999,7-7.04999,.17999-.19,2.89001,3.02997,4.22998,4.44,.22003,.22998,23.12,24.24005c9.65002,2.79999,18.47998,7.87994,25.76001,14.78998,.31,.27997,.60999,.57001,.90997,.84998h.00002Z" fill="#ffb6b6"/>
    <path d="M118.09707,548.43451l14.80315,13.6286c13.8681,7.8775,31.8871,12.1095,34.41911,12.67969l3.45308,1.27209c3.61142,4.36194,8.21519,7.79541,13.4259,10.01288,12.95673,5.72626,26.41383,3.68256,30.05672-4.56384h0c3.64288-8.24634-3.90762-19.57062-16.86974-25.29718-5.14642-2.35858-10.78291-3.45038-16.43777-3.18396l-.65369-.27911-40.12621-19.36005" fill="#ffb6b6"/>
    <path d="M140.52601,483.99322c2.43704,0-38.99263,45.08527-38.99263,45.08527l35.90796,27.93481,12.83282-52.30518-9.74815-20.71484v-.00006Z" fill="#6c63ff"/>
    <path d="M150.84684,566.34076l-12.78226-11.83179-4.44756-4.10638-17.81475-16.48663-9.57762-9.96747-13.62304-14.15918-6.75057-7.01868-4.55725-4.72787-4.1308-4.30133,1.66937-17.32739,3.44843-35.70261,4.42323-45.85291,3.44836-35.7392,.41433-4.28915-14.69527-21.22055-55,27-14.65062,109.22443-2.48583,11.77087v.00003c-2.05896,9.7388,1.35264,19.82571,8.90039,26.31528l50.51464,43.43274,6.48253,5.56866,9.62626,8.28595,31.6328,27.19739,39.95524-26.06415-.00002-.00006Z" fill="#e6e6e6"/>
    <circle cx="66.19631" cy="453.53024" r="62.1445" fill="#ffb6b6"/>
    <path d="M92.86054,463.66794l1.05061-19.01178-8.52964-14.62225s-2.43704-49.95932-21.93335-47.52228C43.95184,384.9487,1.30366,420.28576,.08514,433.68948c-1.21852,13.40372,10.7863,27.22511,22.31503,27.28789l25.40125-1.23069s17.67611-17.34394,44.42915-1.10777,9.57957-7.43194,9.57957-7.43194,12.56909-5.56163,2.3411,6.73952s-4.77934,6.70697-7.47932,9.55444,6.1601,12.71061,8.81999,3.48062l-5.04216-2.65882-5.41312-6.67188c-1.75996-2.55016-2.87056,0.53942-2.87056,0.53942l-11.21508,12.03141-14.07268,0,14.35897,10.95272s-.09839,.10267-.39252,.2336c-5.96824,4.01073-15.99134-3.59943-24.0915-5.39619Z" fill="#ffb6b6"/>
</svg>
